<svg width="749" height="623" viewBox="0 0 749 623" fill="none" xmlns="http://www.w3.org/2000/svg">
<path d="M0 0H749V622.826H0V0ZM76.436 48.2754L75.3389 50.8354L74.9731 52.6641L75.3389 55.2241L69.4873 61.0757L67.6587 64.0015L65.4644 65.0986L62.9043 67.293L62.5386 72.0474L60.71 79.3618L59.9785 81.1904L59.6128 84.4819V91.4307L60.3442 93.625L59.9785 96.5508L58.1499 100.939L57.0527 103.134L57.4185 104.962L62.5386 107.157L70.2188 110.083L70.9502 111.18L70.5845 133.489L66.9272 136.415L65.4644 138.243L65.0986 144.095L64.0015 146.655L63.27 151.409L61.8071 155.066L61.4414 158.358L59.9785 162.015L57.7842 164.575L57.4185 168.232L56.3213 168.964L56.687 170.427L58.1499 171.89L60.71 174.815L61.0757 177.375L62.5386 178.838L62.1729 180.667L61.4414 182.861L62.9043 184.69L63.6357 185.056L62.9043 187.981L65.8301 189.444L67.6587 190.542L70.2188 193.467L69.853 195.662L69.1216 197.49V200.05L72.7788 201.147L90.6992 203.708H92.1621L91.0649 207.73V209.559L91.7964 210.291V212.851L89.9678 216.508L88.8706 219.434L85.5791 221.628L82.2876 224.919V225.651L87.042 226.017L93.2593 226.748H98.0137L96.9165 229.674L93.2593 232.965L92.5278 233.331L93.2593 234.794L94.7222 236.257V237.354L90.6992 239.183L91.0649 241.377L92.1621 242.108L105.328 243.206L105.694 243.571L97.6479 245.4L88.1392 247.229L86.3105 247.96L84.4819 251.617V253.446L80.8247 256.006L80.0933 256.372L80.8247 258.2L87.7734 265.149L87.4077 267.709L86.3105 270.269L87.042 273.926L85.2134 274.658L84.8477 275.755L85.9448 277.583L86.6763 279.046L85.5791 280.509L85.9448 281.972L88.5049 284.167L90.6992 285.629L91.4307 287.458L94.3564 289.652H95.0879L94.7222 294.041L93.625 295.504V300.258L93.9907 302.087L107.157 303.916L107.522 304.647L103.5 305.378L89.6021 308.304L84.4819 310.864L83.7505 311.961L84.1162 314.521L85.5791 317.447V321.836L84.1162 324.762L82.2876 325.859L83.019 327.688L82.6533 329.15L80.0933 331.345L78.2646 334.271L78.6304 335.733L78.9961 336.465L79.3618 341.951L76.0703 343.048L66.1958 346.705L63.27 348.168L61.0757 352.191L59.9785 357.311L58.5156 359.14L57.4185 362.431L55.5898 364.26V366.82L54.127 368.283L54.4927 370.843L55.5898 372.671L55.9556 373.037V375.231L55.2241 375.963L55.5898 377.792L56.3213 378.523L57.4185 384.009L56.3213 385.837L59.2471 387.666L60.71 388.763L61.0757 396.443L61.8071 397.175V400.832L62.5386 402.295L62.1729 404.855L61.0757 406.318L61.4414 411.438L59.2471 413.267L43.1553 418.752L41.3267 419.85L42.4238 420.947L50.104 423.141L54.127 424.604V427.164L52.6641 430.09L50.8354 432.284L50.104 435.576L48.2754 438.136V440.696L50.104 442.524L53.7612 446.547L54.127 448.01L59.9785 449.839L62.9043 455.325L64.3672 457.885L64.7329 461.176V465.565L63.6357 469.588L63.27 473.977L62.1729 475.439V480.194L63.27 480.56L72.7788 481.291H74.9731L73.1445 484.948V488.24L77.5332 488.971L86.3105 490.068L89.9678 490.8L88.8706 491.897L86.3105 492.994V498.846L84.1162 502.869L84.4819 506.16L84.8477 507.257V510.549L83.7505 515.303L81.9219 519.692L76.8018 522.618L76.436 523.349L88.1392 524.446L86.3105 526.275L78.6304 531.395L76.8018 532.492L78.2646 532.858L83.019 531.395L87.4077 528.469L89.2363 528.104V532.126H95.8193L101.305 531.761H107.157L110.083 535.784L111.911 534.687L113.008 533.224L114.105 533.589L115.568 537.247L117.397 536.881L118.128 538.344L119.226 538.709L119.591 538.344H121.42L122.517 539.075L123.249 540.904L125.443 542.001L125.809 542.367H128.003L129.832 544.195L130.929 546.39L132.757 546.024L136.415 542.367L138.243 540.172L140.072 538.709H142.266L145.558 539.807L147.021 539.075L148.483 539.441L149.215 540.538L151.043 540.172L152.141 539.075L153.969 539.441L155.432 539.807L157.261 537.978L159.821 534.687L162.015 533.589L164.209 530.298H168.598L171.158 531.395L172.255 531.029H174.815L177.741 532.492L180.301 535.784L182.496 537.247L183.958 539.441L185.787 540.172L190.176 537.978L191.639 537.612H194.199L196.393 538.344L197.856 540.538L199.685 539.807L201.147 540.172L202.976 542.732L205.17 543.83L207.73 543.464L211.388 542.732L217.239 543.464L218.336 542.732L220.896 543.098L221.994 543.83L226.382 544.195L228.577 546.024L231.502 546.39L232.234 547.853L234.428 548.218L235.891 548.584L236.623 549.681L238.817 549.315L241.011 547.853L241.743 547.121L243.206 547.487L245.4 547.853L247.96 546.39L250.52 545.658L252.714 546.024H254.177L256.006 542.732V542.001L263.686 541.27L265.515 540.172H268.44L269.903 539.441L272.463 539.807L273.926 540.538L276.121 540.172L277.949 539.807L280.875 541.27L285.629 542.732L288.921 543.83L291.481 546.024L294.772 546.755L296.235 547.121L296.967 548.584L298.43 549.315L300.258 549.681L304.647 551.875L306.841 550.413L311.23 546.024L313.059 544.927L314.887 539.807L318.179 537.612L323.299 534.321L328.419 533.589H330.979L333.539 534.321L338.659 534.687L340.488 535.784H344.145L344.876 537.612L347.802 540.172L349.631 540.904L352.191 541.27L353.654 542.367L355.482 542.001L355.848 541.27L357.311 540.904L357.677 543.464L358.042 543.83L363.163 543.464L365.357 544.561L367.186 545.658L370.843 544.927L372.671 544.195L378.157 544.927L381.083 546.39L383.277 547.121L385.837 551.875L388.397 552.607L390.592 552.973L391.689 554.801L393.518 555.533H395.346L396.078 554.07L396.443 548.95H400.832L403.026 547.487H405.586L407.415 547.853L408.878 547.121L411.072 547.487L414.364 548.95L415.827 549.681L418.021 549.315L419.85 548.218L422.044 548.95H423.507L428.993 546.024L430.456 544.927L434.844 543.098L438.136 540.904H441.062L447.279 540.172L450.57 538.344L454.593 536.515H457.153L460.445 534.321L463.005 533.224L464.468 531.761L467.028 531.029L469.588 528.835L473.611 527.738L475.074 525.909L476.537 522.618L479.828 519.692L480.56 519.326L483.851 519.692L488.605 522.252L492.628 521.155L494.457 520.789L498.846 524.446L501.771 526.641L502.503 527.738L511.28 528.835L512.012 530.298L513.84 531.761L514.572 534.321L516.766 535.418H518.96L519.692 535.784H523.715L526.275 534.321L531.395 533.589H533.955L534.321 533.955H539.075L543.83 529.932L545.658 528.469L547.121 528.104V537.612H547.853L549.681 530.298L550.778 527.738H553.704L555.898 528.469L556.264 544.927L559.556 546.024L562.116 548.218L564.676 548.584L567.602 550.413L570.162 550.047L572.722 547.121L576.379 544.195L577.476 543.098L578.939 538.344L583.328 535.784L587.351 533.224L592.105 532.492H594.665L600.151 533.589L601.979 533.224L604.54 534.687H607.1L608.928 536.515L611.854 539.075L613.683 539.807L616.243 540.172L618.071 541.27L619.534 540.538L619.9 539.807H620.631L622.46 543.098L625.386 542.367L627.946 542.732L631.237 544.561L634.529 543.83L636.357 543.098L639.283 543.464L643.306 544.195L645.135 545.292L647.695 545.658L648.792 548.95L649.889 551.144L655.009 551.875L655.741 553.704L659.032 554.801L660.861 551.144L660.495 547.487L663.787 544.195L666.712 541.635L667.444 539.807L667.81 538.709L670.004 537.978L672.93 535.418L673.295 531.029L675.124 523.349L675.855 522.252L676.587 515.669V513.109L675.49 507.623L676.953 503.234L679.147 498.48L676.221 496.651L666.712 492.994L665.25 492.263L664.884 469.954L668.175 467.028L670.004 465.199L670.37 464.468L670.735 458.982L672.198 455.325V452.765L673.661 449.473L674.027 445.45L675.855 441.062L678.05 438.501L678.416 434.844L679.513 433.381V432.284L677.318 430.456L675.124 427.896V425.335L673.661 424.238L674.027 421.678L674.393 419.484L672.198 417.655L672.93 416.192L673.295 415.095L671.101 413.632L668.175 412.169L665.981 409.609L665.615 408.146L666.712 405.586V402.661L660.861 401.198L644.769 399.003L644.038 398.638L644.403 396.443L644.769 393.152L644.038 391.689L644.403 389.129L645.866 386.203L646.963 383.277L650.255 381.083L653.546 377.792V377.426L646.963 376.329L639.649 375.597L638.186 375.231L638.917 373.403L641.112 370.843L643.306 369.38L642.94 367.917L641.112 366.454V365.357L644.769 363.528L645.135 362.431L644.403 360.968L638.552 360.237L630.14 359.505L629.774 358.774L634.529 358.042L648.061 355.482L649.889 354.385L651.352 351.459L651.718 348.899L655.375 346.339L655.741 345.608L653.181 342.682L648.426 337.928V335.368L649.523 332.808L649.158 329.15L650.986 327.322L649.889 325.493L649.158 323.665L649.889 322.567V320.739L645.135 316.716L644.403 314.887L641.112 312.693V309.036L642.209 307.207V300.99L639.649 300.258L628.677 298.795L629.409 298.064L646.232 294.407L651.352 291.847L652.083 291.115V288.921L650.255 284.532V281.241L651.352 278.315L653.546 276.852L652.815 275.389L653.181 273.561L655.741 271.732L657.569 268.806L656.838 264.052L656.472 261.492L658.301 260.395L666.712 257.103L671.833 254.909L674.027 252.349L675.124 249.789L675.49 246.497L677.684 242.84L678.781 239.548L680.244 238.817L680.61 235.525L681.707 234.794V232.6L679.878 229.308L680.244 227.479L680.61 225.285L679.513 223.457L678.416 217.971H679.147L679.513 216.508L675.49 214.313L674.758 206.268L674.027 205.536V201.879L673.661 201.147V198.222L674.758 196.759L674.393 191.639L676.221 189.81L680.61 187.981L692.679 183.958L694.507 182.861V182.13L689.021 180.301L682.438 178.473L681.707 178.107L682.073 174.45L684.267 171.524L684.999 170.792L685.73 167.501L687.193 165.672L687.924 163.112L687.193 161.649L682.804 156.895L681.707 154.701L676.221 152.872L673.295 147.752L671.467 144.46L671.101 140.438V137.146L672.564 130.929V128.734L673.661 126.906L674.027 122.517L667.444 121.786L661.227 121.42L662.689 118.494L663.055 114.837L660.495 114.105L648.792 112.643L646.232 111.911V111.18L649.523 109.717V103.865L651.352 101.305L651.718 98.0137L650.621 94.3564L651.718 88.5049L653.181 85.9448L653.912 83.3848L656.838 81.5562L659.398 80.0933V79.3618L647.695 78.2646L649.158 76.8018L659.032 70.2188L657.569 69.853L653.181 70.9502L648.061 74.2417L646.598 74.6074V70.5845H641.478L635.626 70.9502H629.043L626.849 68.3901L625.751 67.293H624.654L623.191 69.1216L621.363 68.7559L620.997 66.1958L617.706 64.7329L617.34 64.0015H616.608V64.7329L613.317 63.6357L612.951 61.8071L610.391 61.0757L609.294 59.9785L608.197 60.3442L606.368 58.8813L604.54 55.9556L602.345 57.4185L599.785 59.9785L597.225 62.9043L595.762 64.0015L592.471 63.6357L591.374 62.9043L587.351 63.6357L586.985 62.1729H585.156L583.693 63.6357L581.865 63.27L580.768 62.5386L578.939 64.3672L576.379 67.6587L575.647 68.3901L573.819 69.1216L571.99 72.4131L570.527 72.7788H567.602L565.407 71.3159L562.847 72.0474L561.019 71.6816L560.287 70.9502L557.727 69.853L556.996 68.3901L555.167 68.7559L551.144 71.6816L547.853 74.2417H547.121L546.755 65.4644L546.024 66.9272L544.195 73.5103L542.732 75.3389L539.807 74.9731L537.247 73.876L535.418 74.2417L534.321 74.6074L532.492 73.5103L528.835 69.1216L526.275 67.6587L524.446 64.7329L522.252 62.9043L520.789 62.5386L520.423 62.9043L517.498 62.5386L516.4 62.1729L512.377 61.8071L510.183 60.71H506.526L504.697 60.3442H502.137L497.017 61.8071L494.091 61.4414L488.971 59.2471L487.508 58.8813L485.68 61.8071L481.657 71.3159L480.56 73.1445H474.708L460.811 74.2417H458.982L456.056 70.2188L454.593 69.4873H450.205L446.913 68.3901L445.084 68.0244L443.622 68.3901L439.233 66.5615H435.576L431.918 64.7329L430.09 63.27H427.164L425.335 61.8071L424.238 62.1729L422.775 64.0015L420.947 65.4644L420.215 66.5615L417.29 66.9272L416.192 68.3901H413.632L411.804 68.0244L410.341 69.4873V70.2188L407.049 69.4873L404.855 74.2417L401.563 77.1675L399.003 76.8018L395.346 76.0703L394.249 79.3618L390.592 98.0137L390.226 99.1108L386.935 98.7451L385.837 98.3794L382.912 99.8423L380.717 99.1108L375.963 97.2822H375.231L374.5 95.0879L370.843 91.0649H370.111L368.283 102.402L367.917 106.791L364.625 104.962L362.065 101.671L360.603 102.037L359.14 103.865H358.042L356.58 100.208L355.482 99.8423L354.02 100.939L353.288 104.962L351.825 115.203H351.459L349.997 104.962L348.899 96.1851L345.974 95.4536L345.608 94.3564L343.414 94.7222L342.316 93.625L340.854 90.6992L339.391 91.0649L331.71 98.7451L328.419 98.0137L325.859 97.6479L323.665 98.0137L322.567 96.5508L321.104 96.9165L319.642 98.0137H317.813L317.447 97.2822L315.984 97.6479L313.79 100.208L311.961 102.768L310.133 103.5L307.573 107.157H304.281L302.453 106.06L298.064 106.425L296.235 106.791L294.041 119.957L293.31 119.591L292.212 113.74L290.384 102.402L287.824 97.2822H285.629L281.241 99.4766H277.218L275.389 98.7451L274.658 96.9165L273.561 96.5508L272.829 97.2822H271L269.172 94.7222L266.246 93.2593L264.783 93.625L260.395 94.3564L258.932 93.9907L255.64 83.7505L254.177 79.3618L250.886 77.1675L246.131 76.436L243.937 74.6074L241.011 73.876L238.451 72.0474L236.623 72.4131L235.16 70.9502L233.331 71.3159L231.137 72.4131L230.04 73.1445L228.211 72.7788L226.748 72.4131L224.188 73.876L221.994 74.6074H219.434L217.971 74.2417L215.776 78.2646L214.679 78.6304L207.73 79.3618L206.999 80.0933L203.708 80.459L200.416 81.1904L198.587 80.0933L196.027 80.459L193.833 80.8247L192.004 78.9961L190.176 73.1445L187.616 62.9043L186.519 61.0757L183.593 60.3442L181.398 58.8813L180.667 57.7842L176.644 57.0527L174.084 54.4927L171.524 54.127L168.232 52.2983H166.404L164.209 54.4927V55.2241L162.381 55.9556L160.552 58.1499L158.724 58.8813L157.261 64.0015L155.432 65.4644L152.506 66.9272L148.849 69.4873L144.46 70.2188H140.803L137.877 69.4873H133.489L131.66 68.0244L129.466 68.3901L128.003 67.6587L125.443 64.7329L122.517 62.9043L119.591 62.5386L118.494 61.4414L116.666 61.8071L115.934 62.5386H114.837L113.74 59.6128L110.083 60.3442L107.888 59.9785L105.328 58.5156H102.402L99.8423 59.6128H97.6479L93.2593 58.8813L91.4307 57.4185H89.6021L88.1392 55.9556L85.9448 51.5669L81.1904 50.8354L80.0933 49.0068L78.2646 48.2754H76.436Z" fill="#FEFEFE"/>
</svg>
