<svg width="1000" height="107" viewBox="0 0 1000 107" fill="none" xmlns="http://www.w3.org/2000/svg">
<path d="M71.875 0L78.75 0.625L80 1.875L96.25 3.125V1.25L104.375 0.625L110 1.25L111.25 2.5L117.5 3.75L118.125 1.875L119.375 10.625L143.125 11.25L149.375 11.875L156.25 10.625L160 8.75L186.25 10L193.125 11.875L193.75 14.375L196.25 15L196.875 16.875L199.375 19.375V20.625L205 21.25L215 23.75H223.125L223.75 21.875L226.25 21.25L227.5 19.375H238.125L254.375 21.25H263.75L270.625 21.875L278.125 25L279.375 26.25L285 26.875L297.5 26.25L306.875 25H320L335.625 26.25L354.375 29.375L360 30.625L364.375 31.25L365 33.125L368.125 33.75L376.25 35L380 34.375H385.625L387.5 35.625L394.375 36.25L398.125 35L403.125 35.625L403.75 37.5H406.875L408.75 39.375L409.375 43.125H415L413.125 43.75V45L415.625 44.375V43.125L421.25 41.25L425.625 40.625H431.875L437.5 41.875L436.875 43.125L449.375 46.25L458.75 48.125L463.75 47.5H472.5L477.5 48.125L478.125 48.75L485 49.375L498.75 46.25L533.125 45.625L539.375 44.375L542.5 43.125V41.875L544.375 40.625V39.375L552.5 37.5L558.125 36.875H562.5L568.75 38.75L575.625 40L577.5 40.625L588.125 41.25L585.625 40V39.375L596.25 37.5L603.125 36.25L612.5 35.625H620L630 36.25L635.625 38.125L647.5 39.375L655.625 41.875H660.625L669.375 40.625L670.625 41.25V42.5L675.625 43.125V45.625H679.375L681.25 46.25L686.875 45L688.125 44.375V43.125L692.5 42.5L693.75 43.75L695.625 45L699.375 46.25V47.5H703.75L705.625 48.75V50.625L708.125 50L709.375 50.625L708.75 48.75L717.5 44.375L716.25 43.125L721.875 41.25L740.625 40.625H765L766.875 41.25V42.5L759.375 44.375V47.5L775 46.875L791.25 45L795.625 44.375H810L822.5 45.625H826.875L835 41.875L836.875 41.25H876.25L886.875 41.875L897.5 44.375L906.25 45.625H911.875L914.375 45L915 42.5L918.75 41.25L919.375 40L918.125 39.375L924.375 37.5L936.875 36.875L944.375 35.625L952.5 35H954.375V33.75H951.25V33.125L955.625 31.875L958.75 30.625H964.375L970 31.25L971.25 32.5L970.625 33.125L975.625 34.375V35.625L981.25 36.875L981.875 39.375L1000 40V106.25H0V18.125L5.625 16.875L16.875 15L28.125 13.75L34.375 10.625L48.75 8.125H51.875V6.875L57.5 5L56.25 3.125L65 1.25L71.875 0Z" fill="#fff"/>
</svg>
