<svg width="20" height="28" viewBox="0 0 20 28" fill="none" xmlns="http://www.w3.org/2000/svg">
<g clip-path="url(#clip0_0_986)">
<path d="M19.8055 12.0414H19V11.9999H10V15.9998H15.6515C14.827 18.3283 12.6115 19.9997 10 19.9997C6.6865 19.9997 4 17.3133 4 13.9998C4 10.6864 6.6865 7.99993 10 7.99993C11.5295 7.99993 12.921 8.57692 13.9805 9.5194L16.809 6.69095C15.023 5.02648 12.634 4 10 4C4.4775 4 0 8.47742 0 13.9998C0 19.5222 4.4775 23.9997 10 23.9997C15.5225 23.9997 20 19.5222 20 13.9998C20 13.3293 19.931 12.6749 19.8055 12.0414Z" fill="#FFC107"/>
<path d="M1.15332 9.34541L4.43882 11.7549C5.32782 9.5539 7.48082 7.99993 10.0003 7.99993C11.5298 7.99993 12.9213 8.57692 13.9808 9.5194L16.8093 6.69095C15.0233 5.02648 12.6343 4 10.0003 4C6.15932 4 2.82832 6.16846 1.15332 9.34541Z" fill="#FF3D00"/>
<path d="M10.0004 24C12.5834 24 14.9304 23.0115 16.7049 21.404L13.6099 18.7851C12.5723 19.5746 11.3042 20.0014 10.0004 20C7.3994 20 5.1909 18.3416 4.3589 16.0271L1.0979 18.5396C2.7529 21.778 6.1139 24 10.0004 24Z" fill="#4CAF50"/>
<path d="M19.8055 12.0413H19V11.9998H10V15.9997H15.6515C15.2571 17.1079 14.5467 18.0762 13.608 18.7851L13.6095 18.7841L16.7045 21.4031C16.4855 21.6021 20 18.9996 20 13.9997C20 13.3292 19.931 12.6747 19.8055 12.0413Z" fill="#1976D2"/>
</g>
<defs>
<clipPath id="clip0_0_986">
<rect width="20" height="20" fill="white" transform="translate(0 4)"/>
</clipPath>
</defs>
</svg>
