<svg width="18" height="24" viewBox="0 0 18 24" fill="none" xmlns="http://www.w3.org/2000/svg">
<path d="M14.8917 22.35C13.7484 23.5375 12.5 23.35 11.2984 22.7875C10.0267 22.2125 8.86003 22.1875 7.51836 22.7875C5.83836 23.5625 4.9517 23.3375 3.94836 22.35C-1.74497 16.0625 -0.904971 6.4875 5.55836 6.1375C7.13336 6.225 8.23003 7.0625 9.1517 7.1375C10.5284 6.8375 11.8467 5.975 13.3167 6.0875C15.0784 6.2375 16.4084 6.9875 17.2834 8.3375C13.6434 10.675 14.5067 15.8125 17.8434 17.25C17.1784 19.125 16.315 20.9875 14.88 22.3625L14.8917 22.35ZM9.03503 6.0625C8.86003 3.275 10.9717 0.975 13.3984 0.75C13.7367 3.975 10.6684 6.375 9.03503 6.0625Z" fill="black"/>
</svg>
